<?xml version="1.0" encoding="UTF-8"?>
<svg id="Layer_2" data-name="Layer 2" xmlns="http://www.w3.org/2000/svg" viewBox="0 0 605.93 172.95">
  <g id="Layer_2-2" data-name="Layer 2">
    <path d="M75.9,20.87C33.57,20.87,0,56.08,0,100.13s31.28,72.82,76.73,72.82c42.12,0,75.9-34.8,75.9-78.05S121.15,20.87,75.9,20.87ZM77.67,28.38c15.36,0,28.63,4.96,39.02,13.43-2.52.05-5.05.09-7.61.09h-61.95c-3.38,0-6.72-.05-10.03-.14,11.53-8.64,25.81-13.38,40.57-13.38ZM11.05,95.7c0-7.94,1.19-15.31,3.35-22.05,16.77-25.85,36.47-23.08,59.28-23.08v95.02c.1,21.43-10.96,18.03-20.37,15.77-25.42-9.95-42.27-35.23-42.27-65.65ZM97.15,163.18c-16.37,1.75-14.52-8.04-14.61-17.59V50.57c22.29.55,41.99-3.95,55.11,23.03,2.44,7.77,3.73,16.23,3.73,25.12,0,32.59-17.89,56.65-44.23,64.46Z"/>
    <g>
      <path d="M234.36,150.74c2.03-1.83,7.11-8.13,14.83-19.71l46.31-67.93c-19.58,0-36.28-.21-54.62,1.57l3.64-8.62h68.28l.41.81c-2.44,1.63-7.92,7.72-15.44,18.9l-48.16,70.92c34.75-.61,47.75-1.83,62.59-6.91l.81.41-3.66,11.38h-74.98v-.81Z"/>
      <path d="M190.66,127.34V63.15h-12.8v-.81l21.13-19.94h.81v13.59c11.79,0,26.76.26,36.07.03l-3.31,8.66c-13.36-1.36-23.69-1.63-32.75-1.53v61.34c0,18.49,13.61,21.95,19.71,21.95,6.5,0,12.4-2.84,17.27-8.74l1.02.41-9.55,12.6c-3.66,1.63-7.72,2.24-12.6,2.24-16.26,0-24.99-9.75-24.99-25.6Z"/>
      <path d="M314.84,127.17c0-14.63,9.55-22.35,22.56-24.99,9.14-1.83,15.85-3.25,20.93-4.67,12.19-3.45,13.82-6.3,13.82-16.26,0-11.18-8.33-18.9-20.52-18.9-9.96,0-21.54,7.11-26.62,16.26l-.81-.2,1.42-9.75c5.89-7.92,17.27-13.82,27.84-13.82,2.64,0,27.64,0,27.64,27.84v46.94c0,8.13,2.24,13.41,12.19,14.43l.2.61-7.11,6.91c-6.71,0-13.61-5.28-14.22-11.58-4.27,3.05-16.26,10.36-17.88,11.18-1.63.81-5.89,1.63-10.57,1.63-15.44,0-28.85-9.14-28.85-25.6ZM371.94,135.71v-40.03c-1.63,1.63-4.06,2.64-7.52,4.06-4.88,1.83-11.38,4.06-20.73,6.71-10.57,3.05-18.49,7.72-18.49,19.51s10.16,19.91,21.54,19.91c6.71,0,16.46-2.84,25.2-10.16Z"/>
      <path d="M433.78,106.04c0-27.03,20.12-51,47.96-51,25.6,0,44.91,20.93,44.91,47.75,0,23.98-17.07,49.99-45.92,49.99s-46.94-19.51-46.94-46.74ZM515.67,105.84c0-26.42-16.26-45.31-37.59-45.31-19.91,0-33.73,18.08-33.73,41.45,0,25.2,16.05,45.52,38.2,45.52,15.04,0,33.12-12.8,33.12-41.66Z"/>
      <path d="M593.13,150.74c1.42-8.74,1.83-14.22,1.83-27.43v-29.87c0-19.71-9.75-30.48-27.23-30.48-12.4,0-26.21,11.56-26.21,15.74v44.61c0,13.21.41,18.69,1.83,27.43l-.41.81h-11.99l-.41-.81c1.42-8.74,1.83-14.22,1.83-27.43v-21.54c0-21.95,0-28.65-5.28-40.03v-.81l13.61-4.91h.81v18.12c6.1-7.32,15.85-16.05,17.27-16.66,4.27-1.63,8.53-2.44,13.21-2.44,20.52,0,32.11,13.41,32.11,37.19v31.09c0,13.21.41,18.69,1.83,27.43l-.41.81h-11.99l-.41-.81Z"/>
      <path d="M410.06,56.02v-23.75c0-16.22,5.89-25.97,16.26-25.97,3.05,0,9.55,1.63,14.63,8.13h.61l7.32-6.91c-2.24-3.45-9.75-7.52-16.87-7.52-18.69,0-31.09,16.87-31.09,42.67v13.37l-7.18,6.54v.61h7.18v60.14c0,13.21-.41,18.69-1.83,27.43l.41.81h11.99l.41-.81c-1.42-8.74-1.83-14.22-1.83-27.43v-60.17c8.71-.06,18.64.25,31.28,1.54l3.31-8.66c-8.93.22-23.05-.01-34.59-.03Z"/>
    </g>
  </g>
</svg>