<svg width="606" height="173" viewBox="0 0 606 173" fill="none" xmlns="http://www.w3.org/2000/svg">
<g clip-path="url(#clip0_1_40)">
<path d="M75.9 20.87C33.57 20.87 0 56.08 0 100.13C0 144.18 31.28 172.95 76.73 172.95C118.85 172.95 152.63 138.15 152.63 94.9C152.63 51.65 121.15 20.87 75.9 20.87ZM77.67 28.38C93.03 28.38 106.3 33.34 116.69 41.81C114.17 41.86 111.64 41.9 109.08 41.9H47.13C43.75 41.9 40.41 41.85 37.1 41.76C48.63 33.12 62.91 28.38 77.67 28.38ZM11.05 95.7C11.05 87.76 12.24 80.39 14.4 73.65C31.17 47.8 50.87 50.57 73.68 50.57V145.59C73.78 167.02 62.72 163.62 53.31 161.36C27.89 151.41 11.04 126.13 11.04 95.71L11.05 95.7ZM97.15 163.18C80.78 164.93 82.63 155.14 82.54 145.59V50.57C104.83 51.12 124.53 46.62 137.65 73.6C140.09 81.37 141.38 89.83 141.38 98.72C141.38 131.31 123.49 155.37 97.15 163.18Z" fill="white"/>
<path d="M234.36 150.74C236.39 148.91 241.47 142.61 249.19 131.03L295.5 63.1C275.92 63.1 259.22 62.89 240.88 64.67L244.52 56.05H312.8L313.21 56.8601C310.77 58.4901 305.29 64.5801 297.77 75.7601L249.61 146.68C284.36 146.07 297.36 144.85 312.2 139.77L313.01 140.18L309.35 151.56H234.37V150.75L234.36 150.74Z" fill="white"/>
<path d="M190.66 127.34V63.1499H177.86V62.3399L198.99 42.3999H199.8V55.9899C211.59 55.9899 226.56 56.2499 235.87 56.0199L232.56 64.6799C219.2 63.3199 208.87 63.0499 199.81 63.1499V124.49C199.81 142.98 213.42 146.44 219.52 146.44C226.02 146.44 231.92 143.6 236.79 137.7L237.81 138.11L228.26 150.71C224.6 152.34 220.54 152.95 215.66 152.95C199.4 152.95 190.67 143.2 190.67 127.35L190.66 127.34Z" fill="white"/>
<path d="M314.84 127.17C314.84 112.54 324.39 104.82 337.4 102.18C346.54 100.35 353.25 98.9301 358.33 97.5101C370.52 94.0601 372.15 91.2101 372.15 81.2501C372.15 70.0701 363.82 62.3501 351.63 62.3501C341.67 62.3501 330.09 69.4601 325.01 78.6101L324.2 78.4101L325.62 68.6601C331.51 60.7401 342.89 54.8401 353.46 54.8401C356.1 54.8401 381.1 54.8401 381.1 82.6801V129.62C381.1 137.75 383.34 143.03 393.29 144.05L393.49 144.66L386.38 151.57C379.67 151.57 372.77 146.29 372.16 139.99C367.89 143.04 355.9 150.35 354.28 151.17C352.65 151.98 348.39 152.8 343.71 152.8C328.27 152.8 314.86 143.66 314.86 127.2L314.84 127.17ZM371.94 135.71V95.6801C370.31 97.3101 367.88 98.3201 364.42 99.7401C359.54 101.57 353.04 103.8 343.69 106.45C333.12 109.5 325.2 114.17 325.2 125.96C325.2 137.75 335.36 145.87 346.74 145.87C353.45 145.87 363.2 143.03 371.94 135.71Z" fill="white"/>
<path d="M433.78 106.04C433.78 79.01 453.9 55.04 481.74 55.04C507.34 55.04 526.65 75.97 526.65 102.79C526.65 126.77 509.58 152.78 480.73 152.78C451.88 152.78 433.79 133.27 433.79 106.04H433.78ZM515.67 105.84C515.67 79.42 499.41 60.53 478.08 60.53C458.17 60.53 444.35 78.61 444.35 101.98C444.35 127.18 460.4 147.5 482.55 147.5C497.59 147.5 515.67 134.7 515.67 105.84Z" fill="white"/>
<path d="M593.13 150.74C594.55 142 594.96 136.52 594.96 123.31V93.44C594.96 73.73 585.21 62.96 567.73 62.96C555.33 62.96 541.52 74.52 541.52 78.7V123.31C541.52 136.52 541.93 142 543.35 150.74L542.94 151.55H530.95L530.54 150.74C531.96 142 532.37 136.52 532.37 123.31V101.77C532.37 79.82 532.37 73.12 527.09 61.74V60.93L540.7 56.02H541.51V74.14C547.61 66.82 557.36 58.09 558.78 57.48C563.05 55.85 567.31 55.04 571.99 55.04C592.51 55.04 604.1 68.45 604.1 92.23V123.32C604.1 136.53 604.51 142.01 605.93 150.75L605.52 151.56H593.53L593.12 150.75L593.13 150.74Z" fill="white"/>
<path d="M410.06 56.02V32.27C410.06 16.05 415.95 6.3 426.32 6.3C429.37 6.3 435.87 7.93 440.95 14.43H441.56L448.88 7.52C446.64 4.07 439.13 0 432.01 0C413.32 0 400.92 16.87 400.92 42.67V56.04L393.74 62.58V63.19H400.92V123.33C400.92 136.54 400.51 142.02 399.09 150.76L399.5 151.57H411.49L411.9 150.76C410.48 142.02 410.07 136.54 410.07 123.33V63.16C418.78 63.1 428.71 63.41 441.35 64.7L444.66 56.04C435.73 56.26 421.61 56.03 410.07 56.01L410.06 56.02Z" fill="white"/>
</g>
<defs>
<clipPath id="clip0_1_40">
<rect width="605.93" height="172.95" fill="white"/>
</clipPath>
</defs>
</svg>
